<?xml version="1.0" encoding="UTF-8"?>
<svg version="1.1" xmlns="http://www.w3.org/2000/svg" width="409" height="123">
<path d="M0 0 C134.97 0 269.94 0 409 0 C409 33.66 409 67.32 409 102 C274.03 102 139.06 102 0 102 C0 68.34 0 34.68 0 0 Z " fill="#778CAE" transform="translate(0,10)"/>
<path d="M0 0 C44.22 0 88.44 0 134 0 C136 5 136 5 136 8 C135.319375 8.0825 134.63875 8.165 133.9375 8.25 C130.1253093 9.22332528 127.35929671 10.95807455 124 13 C124.38215925 15.52978658 124.66425968 16.70854198 126.62890625 18.4140625 C127.26699219 18.81367188 127.90507812 19.21328125 128.5625 19.625 C130.50390625 20.8515625 130.50390625 20.8515625 132 22 C132 22.66 132 23.32 132 24 C129.525 24.99 129.525 24.99 127 26 C127 27.65 127 29.3 127 31 C128.65 31 130.3 31 132 31 C132.5534764 28.92446352 133 27.15634036 133 25 C133.66 25 134.32 25 135 25 C135.33 24.01 135.66 23.02 136 22 C135.34 22 134.68 22 134 22 C134 21.01 134 20.02 134 19 C133.38125 18.938125 132.7625 18.87625 132.125 18.8125 C130 18 130 18 128.75 15.4375 C128.5025 14.633125 128.255 13.82875 128 13 C129.32 12.34 130.64 11.68 132 11 C134.64 13.64 137.28 16.28 140 19 C138.5 15 138.5 15 136 14 C136 13.34 136 12.68 136 12 C135.34 12 134.68 12 134 12 C134 11.34 134 10.68 134 10 C135.78125 9.3125 135.78125 9.3125 138 9 C139.98781924 10.39496087 141.51945783 12.01981161 143.21875 13.75 C144.94654665 15.265097 144.94654665 15.265097 147.21875 14.6875 C147.8065625 14.460625 148.394375 14.23375 149 14 C149.58007812 14.79664063 149.58007812 14.79664063 150.171875 15.609375 C154.69603477 22.6563505 154.69603477 22.6563505 161.5625 26.4375 C164 27 164 27 165.8125 29.5625 C166.4003125 30.7690625 166.4003125 30.7690625 167 32 C165 35 165 35 162.90625 35.66015625 C161.71515625 35.85931641 161.71515625 35.85931641 160.5 36.0625 C156.83095369 36.63885343 156.83095369 36.63885343 154 39 C152.01171875 39.45703125 152.01171875 39.45703125 149.6875 39.8125 C145.11229519 40.71579084 143.12667517 42.5054807 140 46 C139.01 46 138.02 46 137 46 C136.67 46.99 136.34 47.98 136 49 C135.01 49.33 134.02 49.66 133 50 C133 46.7 133 43.4 133 40 C130.69 40 128.38 40 126 40 C126 43.96 126 47.92 126 52 C124.35 52.66 122.7 53.32 121 54 C120.75765625 53.46890625 120.5153125 52.9378125 120.265625 52.390625 C117.55400352 46.67536126 115.00266882 42.5694484 109 40 C102.89829048 39.13154966 98.44166726 40.33251605 93 43 C90.8125 43.875 90.8125 43.875 89 44 C86.75 42.6875 86.75 42.6875 85 41 C85 40.34 85 39.68 85 39 C83.41375765 39.42683239 81.8310902 39.86696158 80.25 40.3125 C79.36828125 40.55613281 78.4865625 40.79976562 77.578125 41.05078125 C74.94227495 42.02125331 73.14592674 43.21005644 71 45 C71 43.35 71 41.7 71 40 C69.02 40 67.04 40 65 40 C65 41.98 65 43.96 65 46 C64.34 46 63.68 46 63 46 C62.5875 44.96875 62.175 43.9375 61.75 42.875 C58.64383527 35.69017972 54.4166536 30.02111939 47 27 C39.52521008 26.2386788 32.67301089 26.42517274 26 30 C20.00531319 35.86147155 17.8443055 41.18441651 17.625 49.375 C17.75074454 55.13277609 18.92416417 59.68895194 21 65 C21.37229359 66.65839874 21.7293569 68.32201275 22 70 C20.375 70.75 20.375 70.75 18 71 C15 69.25 15 69.25 12 67 C11.21625 66.46375 10.4325 65.9275 9.625 65.375 C9.08875 64.92125 8.5525 64.4675 8 64 C8 63.34 8 62.68 8 62 C7.071875 61.566875 7.071875 61.566875 6.125 61.125 C4 60 4 60 2 58 C1.82453518 54.98691049 1.76872555 52.06689546 1.8046875 49.0546875 C1.8075174 48.1696756 1.81034729 47.2846637 1.81326294 46.37283325 C1.8244776 43.54008588 1.8495843 40.70765216 1.875 37.875 C1.88502815 35.95703581 1.89415428 34.03906667 1.90234375 32.12109375 C1.92442111 27.41394124 1.95895955 22.70702384 2 18 C2.66 18 3.32 18 4 18 C4.598125 18.639375 5.19625 19.27875 5.8125 19.9375 C7.82479229 22.20254715 7.82479229 22.20254715 10.5625 22.5 C13 23 13 23 14.8125 25.0625 C15.204375 25.701875 15.59625 26.34125 16 27 C15.67 27.33 15.34 27.66 15 28 C14.63239269 30.32817964 14.29758419 32.6618385 14 35 C15.98 34.505 15.98 34.505 18 34 C17.938125 32.72125 17.87625 31.4425 17.8125 30.125 C17.70703125 27.9453125 17.70703125 27.9453125 18 26 C21 24 21 24 24 24 C20.31250089 19.48281359 16.53227693 15.60868539 12.09375 11.8359375 C8.55552805 8.73339214 5.29095767 5.36048495 2 2 C1.34 1.34 0.68 0.68 0 0 Z " fill="#5D7DAD" transform="translate(101,10)"/>
<path d="M0 0 C6.62024669 -0.05069859 13.24044334 -0.08573295 19.86083984 -0.10986328 C22.11313752 -0.11992253 24.36542214 -0.13357146 26.61767578 -0.15087891 C29.85452498 -0.17513031 33.09120155 -0.1864839 36.328125 -0.1953125 C37.33554749 -0.20563507 38.34296997 -0.21595764 39.38092041 -0.22659302 C40.32159363 -0.22674408 41.26226685 -0.22689514 42.23144531 -0.22705078 C43.05751282 -0.231492 43.88358032 -0.23593323 44.73468018 -0.24050903 C47.2614006 0.0277529 48.85630055 0.65044595 51 2 C52.44207941 4.88415883 52.09394887 7.41721528 52.0625 10.625 C52.05347656 11.81351563 52.04445312 13.00203125 52.03515625 14.2265625 C52.02355469 15.14179688 52.01195312 16.05703125 52 17 C48.25796056 19.21293195 45.22344821 20.97601082 40.8125 21.0625 C38 20 38 20 35.625 17.4375 C32.76879465 14.78530932 32.34669424 14.66177631 28.6875 14.6875 C27.470625 14.790625 26.25375 14.89375 25 15 C24.67 14.01 24.34 13.02 24 12 C21.525 11.505 21.525 11.505 19 11 C19 22.88 19 34.76 19 47 C23.681875 46.87625 28.36375 46.7525 33.1875 46.625 C34.65598389 46.59100098 36.12446777 46.55700195 37.63745117 46.52197266 C38.80252197 46.4863623 39.96759277 46.45075195 41.16796875 46.4140625 C42.35672607 46.3826416 43.5454834 46.3512207 44.77026367 46.31884766 C47.89841328 46.0100289 50.17113759 45.3293088 53 44 C52.98839844 43.443125 52.97679687 42.88625 52.96484375 42.3125 C52.9033096 37.10846869 52.92532187 32.10472111 54 27 C56.0625 25.5 56.0625 25.5 58 25 C57.505 23.8553125 57.505 23.8553125 57 22.6875 C56 20 56 20 56 17 C57.65 16.67 59.3 16.34 61 16 C61 40.42 61 64.84 61 90 C57.37 91.65 53.74 93.3 50 95 C48 94 48 94 46 92 C45.01 91.7834375 45.01 91.7834375 44 91.5625 C42 91 42 91 40 88 C40.34933594 87.52949219 40.69867188 87.05898437 41.05859375 86.57421875 C41.74115234 85.64029297 41.74115234 85.64029297 42.4375 84.6875 C43.11619141 83.76517578 43.11619141 83.76517578 43.80859375 82.82421875 C45.17336308 80.90322899 45.17336308 80.90322899 46 78 C44.35 78 42.7 78 41 78 C40.731875 78.78375 40.46375 79.5675 40.1875 80.375 C39 83 39 83 36 85 C31.40617081 85.44456411 29.11743887 85.65588803 25.125 83.3125 C20.81688182 78.62425375 20.56400429 73.79527283 20.6796875 67.6640625 C21.13215839 63.90082902 22.45041052 61.76205527 25 59 C28.20407303 56.65034645 31.10274765 56.45438467 35 57 C37.38239458 58.45650942 38.99423008 59.99423008 41 62 C41 62.66 41 63.32 41 64 C42.65 64 44.3 64 46 64 C44.64844718 59.57673622 42.80109562 57.59587018 39 55 C33.97141801 53.323806 29.65969589 53.39357265 24.75 55.1875 C20.76438846 57.81438033 18.51019469 60.46941592 17 65 C16.41318278 71.98538195 16.80500323 77.72017877 20 84 C23.80197204 87.78160433 26.50979691 88.53574937 31.8125 88.75 C32.97394531 88.80671875 34.13539062 88.8634375 35.33203125 88.921875 C36.21246094 88.94765625 37.09289062 88.9734375 38 89 C38 89.66 38 90.32 38 91 C38.99 91.495 38.99 91.495 40 92 C39.67 92.33 39.34 92.66 39 93 C40.65 93.33 42.3 93.66 44 94 C44.33 94.99 44.66 95.98 45 97 C43.25705322 97.86846831 41.50531337 98.71930627 39.75 99.5625 C38.77546875 100.03816406 37.8009375 100.51382813 36.796875 101.00390625 C33.8346784 102.0588785 32.82927062 102.23480879 30 101 C27.74819286 99.51773245 25.98917347 97.853548 24 96 C24 95.34 24 94.68 24 94 C23.2572583 93.8956665 22.5145166 93.79133301 21.74926758 93.68383789 C18.76518577 92.94159358 17.34885858 92.01571084 15.01171875 90.05859375 C13.95307617 89.18364258 13.95307617 89.18364258 12.87304688 88.29101562 C12.15181641 87.67935547 11.43058594 87.06769531 10.6875 86.4375 C9.57665039 85.51420898 9.57665039 85.51420898 8.44335938 84.57226562 C6.62184498 83.05629558 4.80790012 81.53215644 3 80 C3.16242187 79.27296875 3.32484375 78.5459375 3.4921875 77.796875 C3.96211517 75.20865798 4.13380534 72.87399072 4.125 70.25 C4.12757812 69.47140625 4.13015625 68.6928125 4.1328125 67.890625 C4.20684449 65.98823854 4.20684449 65.98823854 3 65 C2.75520869 61.96277443 2.61591635 58.92659394 2.4765625 55.8828125 C2.22868118 53.0181875 2.22868118 53.0181875 0.6484375 51.1796875 C-1.10809277 49.80011232 -1.10809277 49.80011232 -4 49 C-4 48.34 -4 47.68 -4 47 C-3.01 47 -2.02 47 -1 47 C-0.86859619 46.13036621 -0.73719238 45.26073242 -0.60180664 44.36474609 C-0.03715412 41.20773147 0.72015231 38.23730311 1.62890625 35.1640625 C1.94150391 34.10058594 2.25410156 33.03710938 2.57617188 31.94140625 C3.0644043 30.29978516 3.0644043 30.29978516 3.5625 28.625 C3.89185547 27.50738281 4.22121094 26.38976562 4.56054688 25.23828125 C5.37056995 22.49124647 6.1838139 19.74520871 7 17 C7.33 17 7.66 17 8 17 C8 26.9 8 36.8 8 47 C9.65 47 11.3 47 13 47 C13.15505062 42.05449913 13.22906078 37.11639159 13.23193359 32.16845703 C13.24385277 30.49042999 13.27693254 28.81240235 13.33251953 27.13525391 C13.90482721 17.76030225 13.90482721 17.76030225 10.76196289 9.22888184 C7.56709317 5.88369856 3.8924059 3.45871043 0 1 C0 0.67 0 0.34 0 0 Z " fill="#6381AE" transform="translate(39,10)"/>
<path d="M0 0 C19.8 0 39.6 0 60 0 C62 5 62 5 62 8 C60.9790625 8.12375 60.9790625 8.12375 59.9375 8.25 C56.1253093 9.22332528 53.35929671 10.95807455 50 13 C50.38215925 15.52978658 50.66425968 16.70854198 52.62890625 18.4140625 C53.26699219 18.81367188 53.90507812 19.21328125 54.5625 19.625 C56.50390625 20.8515625 56.50390625 20.8515625 58 22 C58 22.66 58 23.32 58 24 C56.35 24.66 54.7 25.32 53 26 C53 27.65 53 29.3 53 31 C54.65 31 56.3 31 58 31 C58.5534764 28.92446352 59 27.15634036 59 25 C59.66 25 60.32 25 61 25 C61.495 23.515 61.495 23.515 62 22 C61.34 22 60.68 22 60 22 C60 21.01 60 20.02 60 19 C59.071875 18.9071875 59.071875 18.9071875 58.125 18.8125 C56 18 56 18 54.75 15.4375 C54.5025 14.633125 54.255 13.82875 54 13 C55.32 12.34 56.64 11.68 58 11 C60.64 13.64 63.28 16.28 66 19 C64.5 15 64.5 15 62 14 C62 13.34 62 12.68 62 12 C61.34 12 60.68 12 60 12 C60 11.34 60 10.68 60 10 C61.78125 9.3125 61.78125 9.3125 64 9 C65.98781924 10.39496087 67.51945783 12.01981161 69.21875 13.75 C70.94654665 15.265097 70.94654665 15.265097 73.21875 14.6875 C73.8065625 14.460625 74.394375 14.23375 75 14 C75.58007812 14.79664063 75.58007812 14.79664063 76.171875 15.609375 C80.69603477 22.6563505 80.69603477 22.6563505 87.5625 26.4375 C90 27 90 27 91.8125 29.5625 C92.4003125 30.7690625 92.4003125 30.7690625 93 32 C91 35 91 35 88.90625 35.66015625 C87.71515625 35.85931641 87.71515625 35.85931641 86.5 36.0625 C82.83095369 36.63885343 82.83095369 36.63885343 80 39 C78.01171875 39.45703125 78.01171875 39.45703125 75.6875 39.8125 C71.11229519 40.71579084 69.12667517 42.5054807 66 46 C65.01 46 64.02 46 63 46 C62.67 46.99 62.34 47.98 62 49 C61.01 49.33 60.02 49.66 59 50 C59 46.7 59 43.4 59 40 C56.69 40 54.38 40 52 40 C52 43.96 52 47.92 52 52 C50.35 52.66 48.7 53.32 47 54 C46.75765625 53.46890625 46.5153125 52.9378125 46.265625 52.390625 C43.56479687 46.69811032 41.00643254 42.52018148 35 40 C32.18503259 39.54724722 32.18503259 39.54724722 29.25 39.375 C28.26515625 39.30023438 27.2803125 39.22546875 26.265625 39.1484375 C25.51796875 39.09945312 24.7703125 39.05046875 24 39 C23.60167969 37.86691406 23.60167969 37.86691406 23.1953125 36.7109375 C22.00911835 34.02068018 20.97722057 32.62944287 18.875 30.625 C18.25367188 30.03074219 17.63234375 29.43648437 16.9921875 28.82421875 C15.01058729 27.00969464 13.01574516 25.21402248 11 23.4375 C10.34 22.8496875 9.68 22.261875 9 21.65625 C7.05595359 19.97026866 7.05595359 19.97026866 4.9375 18.71875 C3 17.4375 3 17.4375 0 14 C0 9.38 0 4.76 0 0 Z " fill="#3F69A9" transform="translate(175,10)"/>
<path d="M0 0 C4.52602846 3.90884276 8.25736476 7.57110764 9.05859375 13.7578125 C9.3650074 20.27606641 8.46064998 24.35271218 4.4375 29.55859375 C0.3684812 33.93844037 -3.40411336 34.57970878 -9.1875 34.875 C-14.01722741 34.74317121 -17.04244192 34.01752614 -20.84765625 31.0546875 C-25.62873966 25.32804164 -25.76750111 19.82959349 -25.6015625 12.6640625 C-25.01073083 7.13650397 -22.68500311 4.70237787 -18.75 1.0625 C-13.19333645 -2.68824789 -5.93416965 -2.96708482 0 0 Z " fill="#F5F7F9" transform="translate(213.25,50.625)"/>
<path d="M0 0 C3.06837786 2.02233995 4.71615331 3.7534209 6.75 6.8125 C7.20410156 9.85864258 7.20410156 9.85864258 7.140625 13.20703125 C7.12128906 15.01010742 7.12128906 15.01010742 7.1015625 16.84960938 C7.06804687 18.09548828 7.03453125 19.34136719 7 20.625 C6.98195313 21.89021484 6.96390625 23.15542969 6.9453125 24.45898438 C6.89823916 27.57759335 6.83249094 30.69465973 6.75 33.8125 C5.1 33.8125 3.45 33.8125 1.75 33.8125 C1.42 32.4925 1.09 31.1725 0.75 29.8125 C0.13125 30.451875 -0.4875 31.09125 -1.125 31.75 C-4.98264796 35.49418773 -8.35916158 35.14518766 -13.546875 35.09765625 C-17.19474364 34.71283774 -18.87320018 33.57265463 -21.25 30.8125 C-23.28640233 28.12815147 -23.24994332 26.80938261 -23.1875 23.375 C-22.07467569 19.14626763 -20.61546545 17.53692441 -17.25 14.8125 C-13.48699626 13.55816542 -9.97789091 13.70554578 -6.0625 13.75 C-5.31291016 13.75451172 -4.56332031 13.75902344 -3.79101562 13.76367188 C-1.94397617 13.77543646 -0.09697787 13.79337135 1.75 13.8125 C-0.17391649 8.49838506 -0.17391649 8.49838506 -4.25 4.8125 C-9.3330999 4.24723352 -9.3330999 4.24723352 -13.625 6.6875 C-15.27699185 8.70975682 -15.27699185 8.70975682 -16.25 10.8125 C-18.23 10.8125 -20.21 10.8125 -22.25 10.8125 C-22.16651691 7.97407499 -21.6776272 6.27200686 -19.73046875 4.1796875 C-13.65807767 -1.11288073 -7.78055068 -2.84289352 0 0 Z " fill="#F7F9FA" transform="translate(326.25,50.1875)"/>
<path d="M0 0 C7.59 0 15.18 0 23 0 C18.54545455 3.34090909 18.54545455 3.34090909 14 3 C12.68 3 11.36 3 10 3 C10.33 3.66 10.66 4.32 11 5 C11.99 5.33 12.98 5.66 14 6 C16.99993194 14.07591153 14.85702994 24.99926983 14.26757812 33.50341797 C14.17213813 35.00725153 14.09512917 36.51236272 14.03613281 38.01806641 C13.5293246 50.58200555 13.5293246 50.58200555 9.70605469 54.12695312 C6.50322037 55.76582696 3.62999292 57 0 57 C0 38.19 0 19.38 0 0 Z " fill="#5779AC" transform="translate(0,10)"/>
<path d="M0 0 C2.97 0 5.94 0 9 0 C9 11.88 9 23.76 9 36 C7.35 36 5.7 36 4 36 C3.505 23.13 3.505 23.13 3 10 C0.36 18.58 -2.28 27.16 -5 36 C-7.64 36 -10.28 36 -13 36 C-15.64 27.09 -18.28 18.18 -21 9 C-21.33 17.91 -21.66 26.82 -22 36 C-23.65 36 -25.3 36 -27 36 C-27 24.45 -27 12.9 -27 1 C-24.03 1 -21.06 1 -18 1 C-13.21941907 15.17168261 -13.21941907 15.17168261 -11.1875 21.6875 C-10.95417969 22.43386719 -10.72085938 23.18023437 -10.48046875 23.94921875 C-10 26 -10 26 -10 30 C-9.34 30 -8.68 30 -8 30 C-7.90203125 29.35675781 -7.8040625 28.71351562 -7.703125 28.05078125 C-6.10309933 18.38166061 -3.1049715 9.27333005 0 0 Z " fill="#F5F7F9" transform="translate(43,21)"/>
<path d="M0 0 C6.62024669 -0.05069859 13.24044334 -0.08573295 19.86083984 -0.10986328 C22.11313752 -0.11992253 24.36542214 -0.13357146 26.61767578 -0.15087891 C29.85452498 -0.17513031 33.09120155 -0.1864839 36.328125 -0.1953125 C37.33554749 -0.20563507 38.34296997 -0.21595764 39.38092041 -0.22659302 C40.32159363 -0.22674408 41.26226685 -0.22689514 42.23144531 -0.22705078 C43.05751282 -0.231492 43.88358032 -0.23593323 44.73468018 -0.24050903 C47.2614006 0.0277529 48.85630055 0.65044595 51 2 C52.44207941 4.88415883 52.09394887 7.41721528 52.0625 10.625 C52.05347656 11.81351563 52.04445312 13.00203125 52.03515625 14.2265625 C52.02355469 15.14179688 52.01195312 16.05703125 52 17 C48.25796056 19.21293195 45.22344821 20.97601082 40.8125 21.0625 C38 20 38 20 35.625 17.4375 C32.76879465 14.78530932 32.34669424 14.66177631 28.6875 14.6875 C27.470625 14.790625 26.25375 14.89375 25 15 C24.67 14.01 24.34 13.02 24 12 C21.58380177 11.74969023 21.58380177 11.74969023 19 12 C18.01 13.485 18.01 13.485 17 15 C14.16273927 12.69228433 11.3308682 10.37805118 8.5 8.0625 C7.68917969 7.40314453 6.87835938 6.74378906 6.04296875 6.06445312 C5.27597656 5.43603516 4.50898437 4.80761719 3.71875 4.16015625 C3.00654297 3.57886963 2.29433594 2.99758301 1.56054688 2.39868164 C1.04556641 1.9371167 0.53058594 1.47555176 0 1 C0 0.67 0 0.34 0 0 Z " fill="#5477AC" transform="translate(39,10)"/>
<path d="M0 0 C6.6 0 13.2 0 20 0 C19.9175 2.083125 19.835 4.16625 19.75 6.3125 C20.1157931 11.71750254 20.97484919 14.76446607 24.95825195 18.56518555 C27.57504296 20.80365492 30.26225342 22.90941876 33 25 C34.53169347 26.32084326 36.05440239 27.65227844 37.5625 29 C38.16191406 29.515625 38.76132813 30.03125 39.37890625 30.5625 C39.91386719 31.036875 40.44882813 31.51125 41 32 C41.84884766 32.7115625 41.84884766 32.7115625 42.71484375 33.4375 C44 35 44 35 44 39 C44.99 39.495 44.99 39.495 46 40 C37.31793961 43.8401421 37.31793961 43.8401421 35 44 C32.75 42.6875 32.75 42.6875 31 41 C31 40.34 31 39.68 31 39 C29.41375765 39.42683239 27.8310902 39.86696158 26.25 40.3125 C25.36828125 40.55613281 24.4865625 40.79976562 23.578125 41.05078125 C20.94227495 42.02125331 19.14592674 43.21005644 17 45 C17 43.35 17 41.7 17 40 C15.02 40 13.04 40 11 40 C11 41.98 11 43.96 11 46 C10.34 46 9.68 46 9 46 C8.5875 44.96875 8.175 43.9375 7.75 42.875 C6.22168388 39.28709598 4.23327263 36.20102411 2 33 C1.67 32.34 1.34 31.68 1 31 C2.48011371 31.30798326 3.95907325 31.621518 5.4375 31.9375 C6.26121094 32.11152344 7.08492187 32.28554688 7.93359375 32.46484375 C10 33 10 33 11 34 C11.04063832 35.66617115 11.042721 37.33388095 11 39 C20.23329807 38.61109506 20.23329807 38.61109506 28 34 C27.01 33.01 26.02 32.02 25 31 C25.33 30.01 25.66 29.02 26 28 C26.33 28.33 26.66 28.66 27 29 C27.33 28.01 27.66 27.02 28 26 C27.236875 26 26.47375 26 25.6875 26 C23.79166667 26 21.89583333 26 20 26 C18.59450439 24.39371931 17.28062485 22.7074998 16 21 C14.88481127 19.69985314 13.75895268 18.40881427 12.625 17.125 C12.02429688 16.43921875 11.42359375 15.7534375 10.8046875 15.046875 C9.65077074 13.7381036 8.48993986 12.43537529 7.3203125 11.140625 C6.80210937 10.55796875 6.28390625 9.9753125 5.75 9.375 C5.29109375 8.86710937 4.8321875 8.35921875 4.359375 7.8359375 C3 6 3 6 0 0 Z " fill="#6984AE" transform="translate(155,10)"/>
<path d="M0 0 C0.50789063 0.38671875 1.01578125 0.7734375 1.5390625 1.171875 C8.78482676 6.95143516 8.78482676 6.95143516 17 11 C19.73814047 13.53778873 21.92595707 15.8889356 24 19 C0.9 19 -22.2 19 -46 19 C-43.49984993 17.33323329 -41.58229167 16.35829329 -38.81982422 15.32006836 C-37.56369827 14.84463844 -37.56369827 14.84463844 -36.28219604 14.35960388 C-35.38211823 14.02308304 -34.48204041 13.68656219 -33.5546875 13.33984375 C-32.62907013 12.9899086 -31.70345276 12.63997345 -30.74978638 12.2794342 C-27.79285764 11.16188344 -24.83410808 10.04926615 -21.875 8.9375 C-18.90889516 7.82179379 -15.94322533 6.70498988 -12.97879028 5.58485413 C-11.13350936 4.88770083 -9.28723525 4.19316995 -7.43991089 3.50144958 C-6.60879791 3.18764847 -5.77768494 2.87384735 -4.92138672 2.55053711 C-3.81910233 2.13655922 -3.81910233 2.13655922 -2.69454956 1.71421814 C-0.99951977 1.12517344 -0.99951977 1.12517344 0 0 Z " fill="#778BAE" transform="translate(46,93)"/>
<path d="M0 0 C4.7257449 2.4001683 8.47755176 6.09728746 12 10 C12 10.33 12 10.66 12 11 C9.36 11 6.72 11 4 11 C3.75765625 11.99257813 3.5153125 12.98515625 3.265625 14.0078125 C1.03667228 23.06713744 -1.3701499 32.0473188 -4 41 C-4.66 41 -5.32 41 -6 41 C-7.14279996 37.19243977 -8.28203874 33.38383436 -9.41796875 29.57421875 C-9.80500802 28.27802682 -10.19302409 26.98212614 -10.58203125 25.68652344 C-11.14058225 23.82563669 -11.6953462 21.96361456 -12.25 20.1015625 C-12.58515625 18.98088379 -12.9203125 17.86020508 -13.265625 16.70556641 C-14 14 -14 14 -14 12 C-16.97 12 -19.94 12 -23 12 C-23.33 12.66 -23.66 13.32 -24 14 C-24.33 11.36 -24.66 8.72 -25 6 C-26.32 5.67 -27.64 5.34 -29 5 C-29 4.01 -29 3.02 -29 2 C-26.83293273 2 -24.66436351 2.01678182 -22.5 2.125 C-20.03927966 2.19027784 -20.03927966 2.19027784 -18.3125 1.0390625 C-12.92421133 -1.38202667 -5.71740564 -1.38224472 0 0 Z " fill="#7B8DB0" transform="translate(39,10)"/>
<path d="M0 0 C1.99431867 1.21604797 3.74557687 2.50336827 5.51953125 4.01953125 C6.72609375 4.97859375 6.72609375 4.97859375 7.95703125 5.95703125 C9.94920944 8.58670646 10.22440055 10.77309359 10.51953125 14.01953125 C7.76953125 14.39453125 7.76953125 14.39453125 4.51953125 14.01953125 C2.45703125 11.20703125 2.45703125 11.20703125 0.51953125 8.01953125 C-4.80445516 4.0727566 -10.08570954 4.1010428 -16.48046875 5.01953125 C-20.09708367 6.66600575 -21.99443621 9.37148787 -24.35546875 12.51953125 C-26.98854245 20.71131611 -26.3677997 29.38370261 -22.48046875 37.01953125 C-20.13550898 39.87745097 -18.9987138 40.8467829 -15.48046875 42.01953125 C-7.62249752 42.72998281 -7.62249752 42.72998281 -0.35546875 40.26953125 C1.34225243 38.23226584 2.55219921 36.48183098 3.51953125 34.01953125 C5.82953125 34.01953125 8.13953125 34.01953125 10.51953125 34.01953125 C8.39418457 39.72440919 6.08618152 43.65839214 0.84375 47.12890625 C-5.12330341 49.415441 -14.20396116 49.17202374 -20.16796875 47.07421875 C-26.27417051 43.39661996 -29.89989663 38.46216373 -31.93359375 31.671875 C-33.67811366 23.21095345 -33.32171913 15.66660233 -28.96875 8.11328125 C-22.59444726 -0.85424177 -10.29665925 -4.07001807 0 0 Z " fill="#F6F8FA" transform="translate(150.48046875,36.98046875)"/>
<path d="M0 0 C2.66593169 1.01121547 4.33785589 2.2956239 6.5 4.1875 C7.325 4.785625 8.15 5.38375 9 6 C11.12856316 5.67134985 11.12856316 5.67134985 13 5 C13.58007812 5.79664063 13.58007812 5.79664063 14.171875 6.609375 C18.69603477 13.6563505 18.69603477 13.6563505 25.5625 17.4375 C28 18 28 18 29.8125 20.5625 C30.4003125 21.7690625 30.4003125 21.7690625 31 23 C29 26 29 26 26.90625 26.66015625 C26.1121875 26.79292969 25.318125 26.92570312 24.5 27.0625 C20.83095369 27.63885343 20.83095369 27.63885343 18 30 C15.90625 30.59765625 15.90625 30.59765625 13.5 31.0625 C10.14540186 31.71952131 10.14540186 31.71952131 7 33 C6.54109375 32.4225 6.0821875 31.845 5.609375 31.25 C4.99578125 30.5075 4.3821875 29.765 3.75 29 C3.14671875 28.2575 2.5434375 27.515 1.921875 26.75 C-0.05972212 24.55115267 -0.05972212 24.55115267 -4 25 C-6.25 24 -6.25 24 -8 23 C-6.35 22.34 -4.7 21.68 -3 21 C-3 19.35 -3 17.7 -3 16 C-2.34 16 -1.68 16 -1 16 C-0.67 15.01 -0.34 14.02 0 13 C-0.66 13 -1.32 13 -2 13 C-2 12.01 -2 11.02 -2 10 C-2.61875 9.938125 -3.2375 9.87625 -3.875 9.8125 C-6 9 -6 9 -7.25 6.4375 C-7.4975 5.633125 -7.745 4.82875 -8 4 C-6.68 3.34 -5.36 2.68 -4 2 C-1.36 4.64 1.28 7.28 4 10 C2.5 6 2.5 6 0 5 C0 4.34 0 3.68 0 3 C-0.66 3 -1.32 3 -2 3 C-2 2.34 -2 1.68 -2 1 C-1.34 0.67 -0.68 0.34 0 0 Z " fill="#6E7BA9" transform="translate(237,19)"/>
<path d="M0 0 C4.08266012 1.4132285 6.82886502 3.17980687 9.18847656 6.85986328 C11.09287546 11.88211381 10.39312658 17.5903264 10.25 22.875 C10.23195313 24.13570312 10.21390625 25.39640625 10.1953125 26.6953125 C10.14830729 29.79765614 10.08260676 32.8984338 10 36 C8.02 36 6.04 36 4 36 C3.98598145 34.84999512 3.98598145 34.84999512 3.97167969 33.67675781 C3.91797227 30.20051897 3.83432424 26.72562526 3.75 23.25 C3.73582031 22.0434375 3.72164063 20.836875 3.70703125 19.59375 C3.67480469 18.43359375 3.64257812 17.2734375 3.609375 16.078125 C3.58842773 15.00981445 3.56748047 13.94150391 3.54589844 12.84082031 C2.87279857 9.33805196 1.81532645 8.13580844 -1 6 C-5.18805326 5.39082862 -7.24129288 5.53817828 -10.875 7.75 C-14.16289022 11.23129553 -14.12674436 14.5428613 -14.31640625 19.203125 C-14.35830078 20.1828125 -14.40019531 21.1625 -14.44335938 22.171875 C-14.50233398 23.69554687 -14.50233398 23.69554687 -14.5625 25.25 C-14.60568359 26.28125 -14.64886719 27.3125 -14.69335938 28.375 C-14.79925682 30.9165387 -14.90133443 33.45817196 -15 36 C-16.98 36 -18.96 36 -21 36 C-21 24.45 -21 12.9 -21 1 C-19.02 1 -17.04 1 -15 1 C-14.67 1.99 -14.34 2.98 -14 4 C-13.175 3.34 -12.35 2.68 -11.5 2 C-7.71161122 -0.51070106 -4.42825501 -0.71737731 0 0 Z " fill="#F3F5F8" transform="translate(360,49)"/>
<path d="M0 0 C0.763125 0.20625 1.52625 0.4125 2.3125 0.625 C2.34988281 1.470625 2.38726562 2.31625 2.42578125 3.1875 C2.85253032 14.44872466 2.85253032 14.44872466 8.49609375 23.79296875 C11.88626945 25.99822867 14.11200002 26.21285859 18.125 26.375 C19.28644531 26.43171875 20.44789062 26.4884375 21.64453125 26.546875 C22.52496094 26.57265625 23.40539062 26.5984375 24.3125 26.625 C24.3125 27.285 24.3125 27.945 24.3125 28.625 C24.9725 28.955 25.6325 29.285 26.3125 29.625 C25.8175 30.12 25.8175 30.12 25.3125 30.625 C26.9625 30.955 28.6125 31.285 30.3125 31.625 C30.6425 32.615 30.9725 33.605 31.3125 34.625 C29.56955322 35.49346831 27.81781337 36.34430627 26.0625 37.1875 C25.08796875 37.66316406 24.1134375 38.13882813 23.109375 38.62890625 C20.1471784 39.6838785 19.14177062 39.85980879 16.3125 38.625 C14.06069286 37.14273245 12.30167347 35.478548 10.3125 33.625 C10.3125 32.965 10.3125 32.305 10.3125 31.625 C9.5697583 31.5206665 8.8270166 31.41633301 8.06176758 31.30883789 C5.07768577 30.56659358 3.66135858 29.64071084 1.32421875 27.68359375 C0.61845703 27.10029297 -0.08730469 26.51699219 -0.81445312 25.91601562 C-1.53568359 25.30435547 -2.25691406 24.69269531 -3 24.0625 C-3.74056641 23.44697266 -4.48113281 22.83144531 -5.24414062 22.19726562 C-7.06565502 20.68129558 -8.87959988 19.15715644 -10.6875 17.625 C-9.8125 12.75 -9.8125 12.75 -8.6875 11.625 C-8.45674918 10.27752916 -8.27596937 8.92122435 -8.125 7.5625 C-7.9084375 5.6134375 -7.9084375 5.6134375 -7.6875 3.625 C-6.6975 3.625 -5.7075 3.625 -4.6875 3.625 C-5.0175 2.965 -5.3475 2.305 -5.6875 1.625 C-2.6875 -0.375 -2.6875 -0.375 0 0 Z " fill="#5779AC" transform="translate(52.6875,72.375)"/>
<path d="M0 0 C2.97646116 2.00738078 4.22241888 3.55676417 5.6875 6.8125 C5.6875 7.8025 5.6875 8.7925 5.6875 9.8125 C3.7075 9.8125 1.7275 9.8125 -0.3125 9.8125 C-0.60125 9.173125 -0.89 8.53375 -1.1875 7.875 C-2.14073451 5.66043921 -2.14073451 5.66043921 -4.3125 4.8125 C-7.8125 4.5625 -7.8125 4.5625 -11.3125 4.8125 C-13.52575664 6.56979589 -13.52575664 6.56979589 -13.375 8.75 C-11.68647095 12.02773287 -8.62833896 12.68879902 -5.3125 13.8125 C-1.82765991 14.91463608 -1.82765991 14.91463608 1.671875 15.96875 C3.97970914 16.93482011 5.16319057 17.83183868 6.6875 19.8125 C7.54303025 26.33591816 7.54303025 26.33591816 5.6328125 29.6328125 C2.93750279 32.93416819 1.13746345 34.65229425 -3.10546875 35.12109375 C-13.40242503 35.51211741 -13.40242503 35.51211741 -17.5625 32.125 C-20.02950888 29.56052905 -21.20509963 27.46411244 -21.3125 23.8125 C-19.3325 23.8125 -17.3525 23.8125 -15.3125 23.8125 C-14.6525 25.4625 -13.9925 27.1125 -13.3125 28.8125 C-11.52091511 28.83946365 -9.72921527 28.85887917 -7.9375 28.875 C-6.44089844 28.89240234 -6.44089844 28.89240234 -4.9140625 28.91015625 C-2.32817547 28.99256602 -2.32817547 28.99256602 -0.3125 27.8125 C-0.3125 25.8325 -0.3125 23.8525 -0.3125 21.8125 C-1.97539062 21.35810547 -1.97539062 21.35810547 -3.671875 20.89453125 C-5.13568369 20.47227874 -6.59921102 20.04905001 -8.0625 19.625 C-8.79210937 19.42841797 -9.52171875 19.23183594 -10.2734375 19.02929688 C-15.0193111 17.62710695 -17.70249336 16.27211765 -20.3125 11.8125 C-20.39267194 7.32287124 -19.80835413 5.41274447 -16.9375 1.9375 C-11.80405822 -2.21814335 -5.99404401 -2.14880823 0 0 Z " fill="#F5F7F9" transform="translate(292.3125,50.1875)"/>
<path d="M0 0 C3.27365512 2.09849687 6.24483773 4.48967546 8 8 C8.55601425 13.06793316 8.55831633 16.92187191 6.1875 21.5 C3.97027442 24.03397209 2.30643749 25.76758135 -1.0859375 26.37109375 C-5.5852541 26.50162 -7.37507224 26.5077538 -11 23.5625 C-11.66 22.716875 -12.32 21.87125 -13 21 C-13.33 20.67 -13.66 20.34 -14 20 C-15.07891454 9.22626768 -15.07891454 9.22626768 -12.953125 4.83984375 C-9.05394601 0.17229714 -5.95418507 -0.68326714 0 0 Z " fill="#7D8FB0" transform="translate(208,54)"/>
<path d="M0 0 C2.65692184 1.73008864 4.14077017 3.00025808 5.6875 5.75 C5.6875 6.74 5.6875 7.73 5.6875 8.75 C2.875 9 2.875 9 -0.3125 8.75 C-0.993125 7.76 -0.993125 7.76 -1.6875 6.75 C-3.09107075 4.57739835 -3.09107075 4.57739835 -5.19921875 4.4140625 C-7.67305835 4.32878055 -7.67305835 4.32878055 -11.3125 4.75 C-13.52575664 6.50729589 -13.52575664 6.50729589 -13.375 8.6875 C-11.68782049 11.96261316 -8.62893487 12.63223862 -5.3125 13.75 C-4.14460938 14.10191406 -4.14460938 14.10191406 -2.953125 14.4609375 C3.19015957 16.32801418 3.19015957 16.32801418 5.75 18.5 C7.1116923 21.76806153 7.0565726 24.24381032 6.6875 27.75 C4.9878675 31.57417312 3.55346688 33.24583541 -0.3125 34.75 C-12.33433744 36.22554852 -12.33433744 36.22554852 -17 32.625 C-19.37042487 29.67798529 -20.46021056 27.41484458 -21.3125 23.75 C-19.3325 23.75 -17.3525 23.75 -15.3125 23.75 C-14.6525 25.4 -13.9925 27.05 -13.3125 28.75 C-11.89816794 28.9736337 -10.48082382 29.17826476 -9.0625 29.375 C-8.27359375 29.49101563 -7.4846875 29.60703125 -6.671875 29.7265625 C-3.99097541 29.75319395 -2.58555911 29.11592084 -0.3125 27.75 C-0.3125 25.77 -0.3125 23.79 -0.3125 21.75 C-0.869375 21.56824219 -1.42625 21.38648437 -2 21.19921875 C-4.4417142 20.39493789 -6.87745065 19.57422845 -9.3125 18.75 C-10.07433594 18.49863281 -10.83617187 18.24726562 -11.62109375 17.98828125 C-17.08308473 16.09412291 -17.08308473 16.09412291 -19.3125 12.75 C-20.10243519 5.75343119 -20.10243519 5.75343119 -17 1.8125 C-11.75585085 -2.21207958 -5.99942757 -2.26393493 0 0 Z " fill="#F7F9FA" transform="translate(260.3125,50.25)"/>
<path d="M0 0 C13.2 0 26.4 0 40 0 C42 5 42 5 42 8 C40.9790625 8.12375 40.9790625 8.12375 39.9375 8.25 C36.1253093 9.22332528 33.35929671 10.95807455 30 13 C30.38215925 15.52978658 30.66425968 16.70854198 32.62890625 18.4140625 C33.26699219 18.81367188 33.90507812 19.21328125 34.5625 19.625 C36.50390625 20.8515625 36.50390625 20.8515625 38 22 C38 22.66 38 23.32 38 24 C36.35 24.66 34.7 25.32 33 26 C33 27.98 33 29.96 33 32 C32.34 32 31.68 32 31 32 C30.87625 31.46632813 30.7525 30.93265625 30.625 30.3828125 C27.66104508 19.67552536 19.12458725 10.16244555 10 4 C7.41635683 3.79662235 7.41635683 3.79662235 5 4 C2.1875 2.5625 2.1875 2.5625 0 1 C0 0.67 0 0.34 0 0 Z " fill="#5A7BAC" transform="translate(195,10)"/>
<path d="M0 0 C6.6 0 13.2 0 20 0 C21.05772111 2.64430277 22.09938293 5.29814878 23 8 C22.34 8 21.68 8 21 8 C21 8.99 21 9.98 21 11 C21.94875 10.814375 22.8975 10.62875 23.875 10.4375 C27 10 27 10 29 11 C29 11.66 29 12.32 29 13 C29.66 13 30.32 13 31 13 C31.66 14.65 32.32 16.3 33 18 C32.01 18 31.02 18 30 18 C29.34 19.32 28.68 20.64 28 22 C27.01 21.67 26.02 21.34 25 21 C24.67 21.66 24.34 22.32 24 23 C23.01 23 22.02 23 21 23 C20.195625 23.12375 19.39125 23.2475 18.5625 23.375 C16 23 16 23 13.5625 20.375 C12 17 12 17 12.8125 13.75 C13.4003125 12.38875 13.4003125 12.38875 14 11 C13.67 10.34 13.34 9.68 13 9 C12.071875 9.309375 11.14375 9.61875 10.1875 9.9375 C4 12 4 12 0 12 C0 8.04 0 4.08 0 0 Z " fill="#3A61A7" transform="translate(175,10)"/>
<path d="M0 0 C2.71372508 1.72691596 4.75860766 3.22246357 6.75 5.75 C6.75 7.07 6.75 8.39 6.75 9.75 C4.5 10.0625 4.5 10.0625 1.75 9.75 C-0.4375 7.3125 -0.4375 7.3125 -2.25 4.75 C-5.78956101 2.9802195 -9.5260616 3.7115305 -13.25 4.75 C-16.17517108 7.46113417 -17.08269093 9.43876377 -17.5859375 13.3828125 C-17.77999589 18.86123002 -17.45799037 23.11623613 -14.25 27.75 C-10.58218328 30.19521115 -7.51546767 30.47237759 -3.25 29.75 C-0.81880377 27.87984906 0.39069173 26.46861655 1.75 23.75 C3.4 23.75 5.05 23.75 6.75 23.75 C6.59817368 26.40696068 6.27675976 28.19234524 4.41796875 30.16015625 C-0.98852614 34.6721459 -4.34223993 35.16880551 -11.26171875 35.0859375 C-15.93419205 34.56066599 -17.28367535 33.40086111 -20.25 29.75 C-23.72574196 23.8638776 -23.98752651 17.42871224 -23.25 10.75 C-21.48692004 5.46076013 -18.63844888 2.94991064 -14.25 -0.25 C-9.20222786 -1.93259071 -4.89935987 -1.88436918 0 0 Z " fill="#F6F7F9" transform="translate(78.25,64.25)"/>
<path d="M0 0 C1.2065625 0.0309375 1.2065625 0.0309375 2.4375 0.0625 C2.4375 3.0325 2.4375 6.0025 2.4375 9.0625 C5.7375 9.0625 9.0375 9.0625 12.4375 9.0625 C12.4375 10.7125 12.4375 12.3625 12.4375 14.0625 C9.1375 14.0625 5.8375 14.0625 2.4375 14.0625 C2.57761038 17.87529106 2.72430438 21.68762562 2.875 25.5 C2.93397461 27.13291992 2.93397461 27.13291992 2.99414062 28.79882812 C3.05698242 30.35053711 3.05698242 30.35053711 3.12109375 31.93359375 C3.15775146 32.89193115 3.19440918 33.85026855 3.23217773 34.83764648 C3.19584424 37.03388925 3.19584424 37.03388925 4.4375 38.0625 C6.76567964 38.43010731 9.0993385 38.76491581 11.4375 39.0625 C11.4375 40.3825 11.4375 41.7025 11.4375 43.0625 C9.68965533 43.19810864 7.93876074 43.29477209 6.1875 43.375 C5.21296875 43.43300781 4.2384375 43.49101563 3.234375 43.55078125 C0.4375 43.0625 0.4375 43.0625 -1.90625 41.3125 C-4.48700681 36.24837343 -3.98240264 31.3404502 -3.8125 25.75 C-3.79445313 24.62787109 -3.77640625 23.50574219 -3.7578125 22.34960938 C-3.71077856 19.58636553 -3.64506317 16.82487302 -3.5625 14.0625 C-5.5425 14.0625 -7.5225 14.0625 -9.5625 14.0625 C-9.5625 12.4125 -9.5625 10.7625 -9.5625 9.0625 C-7.5825 9.0625 -5.6025 9.0625 -3.5625 9.0625 C-3.583125 7.763125 -3.60375 6.46375 -3.625 5.125 C-3.64649454 3.77084367 -3.63398199 2.41493917 -3.5625 1.0625 C-2.5625 0.0625 -2.5625 0.0625 0 0 Z " fill="#F7F8FA" transform="translate(383.5625,40.9375)"/>
<path d="M0 0 C2.9375 2.4375 2.9375 2.4375 5 5 C5.33 5.33 5.66 5.66 6 6 C6.58169863 10.61544489 6.6241677 14.00133167 4.125 18 C0.61872914 21.30001963 -2.06465874 21.41119712 -6.73828125 21.3359375 C-9 21 -9 21 -12 19 C-14.67309907 14.9903514 -15 12.82843714 -15 8 C-12.16273144 1.28015341 -7.30464242 -1.60876053 0 0 Z " fill="#CAE7D3" transform="translate(38,70)"/>
<path d="M0 0 C2.27048342 1.48097442 4.02153745 3.11574995 6 5 C5.67 5.66 5.34 6.32 5 7 C2.03 6.505 2.03 6.505 -1 6 C-0.979375 7.258125 -0.95875 8.51625 -0.9375 9.8125 C-0.89113917 12.64051087 -1.08307039 14.24921116 -2 17 C-1.34 17.33 -0.68 17.66 0 18 C0 18.66 0 19.32 0 20 C-0.66 20 -1.32 20 -2 20 C-1.67 21.65 -1.34 23.3 -1 25 C0.65 24.67 2.3 24.34 4 24 C3 27 3 27 1 28 C-6.01971231 28.57538625 -6.01971231 28.57538625 -9.875 26.3125 C-14.18311818 21.62425375 -14.43599571 16.79527283 -14.3203125 10.6640625 C-13.86784161 6.90082902 -12.54958948 4.76205527 -10 2 C-6.79592697 -0.34965355 -3.89725235 -0.54561533 0 0 Z " fill="#6380AE" transform="translate(74,67)"/>
<path d="M0 0 C2.7987385 1.43923732 4.77664281 2.77664281 7 5 C6.95875 6.134375 6.9175 7.26875 6.875 8.4375 C6.58955653 12.05042921 6.58955653 12.05042921 9 13.9375 C9.66 14.288125 10.32 14.63875 11 15 C10.67 15.66 10.34 16.32 10 17 C4.125 14.25 4.125 14.25 3 12 C2.40832031 12.2165625 1.81664062 12.433125 1.20703125 12.65625 C-6.64147627 15.42179262 -6.64147627 15.42179262 -11 15 C-11 15.66 -11 16.32 -11 17 C-14.82097239 16.46930939 -17.06171403 15.50298434 -20 13 C-19.9114209 8.57104519 -19.2841725 5.71178586 -16.1875 2.5625 C-11.39287331 -1.15010949 -5.78661624 -1.01699386 0 0 Z " fill="#6481AD" transform="translate(146,41)"/>
<path d="M0 0 C1.65 0.33 3.3 0.66 5 1 C5 1.66 5 2.32 5 3 C5.66 3 6.32 3 7 3 C8.35386936 4.65002828 9.68678142 6.3174387 11 8 C11.66 8.33 12.32 8.66 13 9 C13.74609375 11.51171875 13.74609375 11.51171875 14.4375 14.6875 C15.48480226 19.18662504 16.80178438 22.91759957 19 27 C19 27.99 19 28.98 19 30 C17.375 30.75 17.375 30.75 15 31 C12 29.25 12 29.25 9 27 C8.21625 26.46375 7.4325 25.9275 6.625 25.375 C6.08875 24.92125 5.5525 24.4675 5 24 C5 23.34 5 22.68 5 22 C4.071875 21.566875 4.071875 21.566875 3.125 21.125 C1 20 1 20 -1 18 C-1.1723963 15.47833891 -1.23250592 13.08046287 -1.1875 10.5625 C-1.18685547 9.88123047 -1.18621094 9.19996094 -1.18554688 8.49804688 C-1.15827338 5.40402053 -0.98489776 2.95469327 0 0 Z " fill="#5679AC" transform="translate(104,50)"/>
<path d="M0 0 C3.31943284 4.97914926 3.0124985 10.03507661 2.8984375 15.875 C3.05081832 19.06327565 3.84040287 22.04177285 4.66015625 25.1171875 C5 27 5 27 4 29 C10.06264222 28.33735914 10.06264222 28.33735914 16 27 C16.79953138 30.28696233 17.09658936 31.71023192 16 35 C8.74 35 1.48 35 -6 35 C-3 33 -3 33 -1 32 C-1.33 31.01 -1.66 30.02 -2 29 C-4.95257753 20.14226741 -4.11065748 10.22145701 -4 1 C-2.68 0.67 -1.36 0.34 0 0 Z " fill="#6B85AE" transform="translate(377,77)"/>
<path d="M0 0 C0 1.98 0 3.96 0 6 C-0.69867188 6.17015625 -1.39734375 6.3403125 -2.1171875 6.515625 C-3.02726563 6.75796875 -3.93734375 7.0003125 -4.875 7.25 C-5.77992188 7.48203125 -6.68484375 7.7140625 -7.6171875 7.953125 C-10.07776698 8.77445946 -10.07776698 8.77445946 -11.12304688 10.7265625 C-12.15218999 13.39454153 -12.31884939 15.5654817 -12.4140625 18.421875 C-12.45273438 19.44667969 -12.49140625 20.47148438 -12.53125 21.52734375 C-12.5621875 22.59082031 -12.593125 23.65429688 -12.625 24.75 C-12.68300781 26.36841797 -12.68300781 26.36841797 -12.7421875 28.01953125 C-12.83634631 30.67951775 -12.92197387 33.3394994 -13 36 C-14.98 36 -16.96 36 -19 36 C-19 24.45 -19 12.9 -19 1 C-17.02 1 -15.04 1 -13 1 C-12.67 2.32 -12.34 3.64 -12 5 C-11.236875 4.360625 -10.47375 3.72125 -9.6875 3.0625 C-6.15702757 0.35306767 -4.48048683 0 0 0 Z " fill="#F3F5F8" transform="translate(185,49)"/>
<path d="M0 0 C1.65 0 3.3 0 5 0 C5 10.23 5 20.46 5 31 C11.6 31 18.2 31 25 31 C25 32.65 25 34.3 25 36 C16.75 36 8.5 36 0 36 C0 24.12 0 12.24 0 0 Z " fill="#EEF1F5" transform="translate(58,21)"/>
<path d="M0 0 C3.125 0.625 3.125 0.625 6 2 C6.875 4.125 6.875 4.125 7 6 C5.35 6.99 3.7 7.98 2 9 C2.66 9 3.32 9 4 9 C5.80636736 10.58960328 6.91926148 11.83852297 8 14 C6.76115681 14.72767003 5.50831659 15.43154815 4.25 16.125 C3.55390625 16.51945312 2.8578125 16.91390625 2.140625 17.3203125 C0 18 0 18 -1.90625 17.15625 C-2.5971875 16.7746875 -3.288125 16.393125 -4 16 C-6.81496741 15.54724722 -6.81496741 15.54724722 -9.75 15.375 C-10.73484375 15.30023438 -11.7196875 15.22546875 -12.734375 15.1484375 C-13.48203125 15.09945312 -14.2296875 15.05046875 -15 15 C-15.28875 14.236875 -15.5775 13.47375 -15.875 12.6875 C-16.96269013 9.84970692 -16.96269013 9.84970692 -19 7 C-14.32377925 4.19426755 -9.34965424 4 -4 4 C-3.67 3.34 -3.34 2.68 -3 2 C-2.01 1.34 -1.02 0.68 0 0 Z " fill="#486FAA" transform="translate(214,34)"/>
<path d="M0 0 C6.25467806 -0.73653218 10.82339515 -0.75532159 16 3.125 C19.39570406 6.10600746 21.12007582 8.88207085 23 13 C24.97257963 14.79325421 26.8968995 16.38633072 29 18 C30.29770883 19.09705907 31.58940641 20.20126829 32.875 21.3125 C33.47054687 21.82425781 34.06609375 22.33601563 34.6796875 22.86328125 C35.11539063 23.23839844 35.55109375 23.61351563 36 24 C35.67 24.66 35.34 25.32 35 26 C31.90697939 26.55515755 29.7526293 26.44534278 27.01953125 24.828125 C21.33266039 20.47751341 16.12397029 15.53857899 10.88671875 10.6640625 C7.76226043 7.78059758 4.56789619 4.99467603 1.328125 2.2421875 C0.88984375 1.83226562 0.4515625 1.42234375 0 1 C0 0.67 0 0.34 0 0 Z " fill="#476EAA" transform="translate(101,10)"/>
<path d="M0 0 C0.763125 0.20625 1.52625 0.4125 2.3125 0.625 C2.27769531 1.8315625 2.24289063 3.038125 2.20703125 4.28125 C2.17887016 5.89581928 2.15157251 7.51040379 2.125 9.125 C2.09986328 9.91648437 2.07472656 10.70796875 2.04882812 11.5234375 C1.97846502 17.24630318 3.01952602 21.37703857 5.3125 26.625 C0.31567547 26.1634165 -2.2629926 24.79721576 -6.0625 21.5625 C-6.93648437 20.82902344 -7.81046875 20.09554687 -8.7109375 19.33984375 C-9.36320312 18.77394531 -10.01546875 18.20804688 -10.6875 17.625 C-9.8125 12.75 -9.8125 12.75 -8.6875 11.625 C-8.45674918 10.27752916 -8.27596937 8.92122435 -8.125 7.5625 C-7.9084375 5.6134375 -7.9084375 5.6134375 -7.6875 3.625 C-6.6975 3.625 -5.7075 3.625 -4.6875 3.625 C-5.0175 2.965 -5.3475 2.305 -5.6875 1.625 C-2.6875 -0.375 -2.6875 -0.375 0 0 Z " fill="#476EAA" transform="translate(52.6875,72.375)"/>
<path d="M0 0 C0.99 0 1.98 0 3 0 C3 25.74 3 51.48 3 78 C2.01 78 1.02 78 0 78 C0 52.26 0 26.52 0 0 Z " fill="#B8CED1" transform="translate(100,21)"/>
<path d="M0 0 C3.14418072 2.03421582 5.87696717 3.87389135 8.5 6.5625 C11.9483463 9.92463764 15.11705356 12 20 12 C20.33 11.34 20.66 10.68 21 10 C22.98 11.65 24.96 13.3 27 15 C26.34 15.66 25.68 16.32 25 17 C22.64775576 16.89467563 20.41417957 16.48551084 18.09375 16.09375 C17.4028125 16.0628125 16.711875 16.031875 16 16 C15.34 16.66 14.68 17.32 14 18 C14 17.34 14 16.68 14 16 C8.93712184 16.72862494 8.93712184 16.72862494 4 18 C3.67 18.66 3.34 19.32 3 20 C2.34 20.33 1.68 20.66 1 21 C0.07811539 18.23434618 -0.11785222 16.61716298 -0.09765625 13.76953125 C-0.09282227 12.56586914 -0.09282227 12.56586914 -0.08789062 11.33789062 C-0.07951172 10.50451172 -0.07113281 9.67113281 -0.0625 8.8125 C-0.05798828 7.96751953 -0.05347656 7.12253906 -0.04882812 6.25195312 C-0.03705403 4.16793845 -0.0191189 2.08396023 0 0 Z " fill="#6984AE" transform="translate(103,68)"/>
<path d="M0 0 C1.98 0.99 1.98 0.99 4 2 C4.66 1.34 5.32 0.68 6 0 C6 11.55 6 23.1 6 35 C5.67 35 5.34 35 5 35 C5 33.35 5 31.7 5 30 C4.01 30.33 3.02 30.66 2 31 C1.26676204 33.01508358 1.26676204 33.01508358 1 35 C0.67 35 0.34 35 0 35 C0 23.45 0 11.9 0 0 Z " fill="#6D86AE" transform="translate(52,22)"/>
<path d="M0 0 C1.75570313 0.04060547 1.75570313 0.04060547 3.546875 0.08203125 C4.43890625 0.11683594 5.3309375 0.15164062 6.25 0.1875 C6.01038724 4.260917 5.56677426 6.7222378 3.25 10.125 C-0.32326501 12.5816197 -2.46712664 12.8644724 -6.71875 12.609375 C-8.75 12.1875 -8.75 12.1875 -10.875 10.5 C-11.99854744 7.53062462 -11.88793113 6.14612094 -10.75 3.1875 C-7.37980142 -0.19074201 -4.64129315 -0.13923879 0 0 Z " fill="#7C8EB1" transform="translate(320.75,67.8125)"/>
<path d="M0 0 C1.65 0 3.3 0 5 0 C5 11.22 5 22.44 5 34 C3.35 34 1.7 34 0 34 C0 22.78 0 11.56 0 0 Z " fill="#FEFEFE" transform="translate(228,50)"/>
<path d="M0 0 C2.96621183 1.44861508 5.25330711 3.08695221 7.6875 5.3125 C7.6875 5.9725 7.6875 6.6325 7.6875 7.3125 C8.3475 7.6425 9.0075 7.9725 9.6875 8.3125 C9.6875 8.9725 9.6875 9.6325 9.6875 10.3125 C6.7175 11.6325 3.7475 12.9525 0.6875 14.3125 C0.6875 15.6325 0.6875 16.9525 0.6875 18.3125 C-1.2925 18.9725 -3.2725 19.6325 -5.3125 20.3125 C-5.51676123 6.69508453 -5.51676123 6.69508453 -4.3125 0.3125 C-2.3125 -0.6875 -2.3125 -0.6875 0 0 Z " fill="#4D73AB" transform="translate(77.3125,72.6875)"/>
<path d="M0 0 C2.32948536 2.32948536 2.22479314 2.85721032 2.375 6 C2.53232795 8.11780241 2.53232795 8.11780241 3 10 C4.92064793 11.5899433 4.92064793 11.5899433 7 12 C6.67 13.65 6.34 15.3 6 17 C2.66096966 17.46746425 0.11313677 17.72438401 -2.80078125 15.828125 C-6.48854932 12.13155558 -7.36826623 9.27443906 -7.375 4.0625 C-7.2795008 2.37307372 -7.16445227 0.68411303 -7 -1 C-3.51418144 -2.2020064 -3.32007656 -2.21338437 0 0 Z " fill="#617FAD" transform="translate(133,62)"/>
<path d="M0 0 C1.11375 0.2475 1.11375 0.2475 2.25 0.5 C5.19006578 1.11925696 5.19006578 1.11925696 9 1 C10.921875 2.53125 10.921875 2.53125 12.75 4.5 C13.36359375 5.1496875 13.9771875 5.799375 14.609375 6.46875 C15.06828125 6.9740625 15.5271875 7.479375 16 8 C15.25 10.4375 15.25 10.4375 14 13 C11.9375 13.625 11.9375 13.625 10 14 C9.67 14.99 9.34 15.98 9 17 C8.01 17.33 7.02 17.66 6 18 C6 14.7 6 11.4 6 8 C4.02 8 2.04 8 0 8 C0 7.01 0 6.02 0 5 C-0.66 4.67 -1.32 4.34 -2 4 C-1.34 2.68 -0.68 1.36 0 0 Z " fill="#4970AA" transform="translate(228,42)"/>
<path d="M0 0 C0.33 0 0.66 0 1 0 C1 9.9 1 19.8 1 30 C2.65 30 4.3 30 6 30 C5.01 30.99 4.02 31.98 3 33 C1.64791086 32.37224433 0.31836295 31.69580267 -1 31 C-1.721875 30.62875 -2.44375 30.2575 -3.1875 29.875 C-5.95199995 27.01517247 -6.03888845 23.82206661 -6 20 C-5.30634118 16.39992813 -4.21700704 12.97615248 -3.0625 9.5 C-2.77181641 8.5821875 -2.48113281 7.664375 -2.18164062 6.71875 C-1.4685289 4.47420162 -0.74119446 2.23539907 0 0 Z " fill="#7289AE" transform="translate(46,27)"/>
<path d="M0 0 C3.69934245 0.58322966 5.53918833 2.09945963 8.25 4.625 C9.43335938 5.71167969 9.43335938 5.71167969 10.640625 6.8203125 C11.41921875 7.53960938 12.1978125 8.25890625 13 9 C14.32892493 10.17168572 15.66203578 11.33864706 17 12.5 C21.35858517 16.30497455 25.68066186 20.15058986 30 24 C29.34 24.66 28.68 25.32 28 26 C27.29875 25.525625 26.5975 25.05125 25.875 24.5625 C22.83918663 22.91260143 20.40831214 22.39631536 17 22 C16.93941406 21.26136719 16.87882812 20.52273437 16.81640625 19.76171875 C15.72986556 16.08619595 14.00450094 15.04265399 10.9375 12.8125 C9.26083418 11.58263153 7.60622289 10.32054259 6 9 C6 8.34 6 7.68 6 7 C5.38125 6.71125 4.7625 6.4225 4.125 6.125 C2 5 2 5 0 3 C0 2.01 0 1.02 0 0 Z " fill="#4A71AA" transform="translate(129,10)"/>
<path d="M0 0 C0.33872513 1.41538717 0.67074624 2.83237963 1 4.25 C1.185625 5.03890625 1.37125 5.8278125 1.5625 6.640625 C2.10534136 9.5680909 2.22602246 12.17125096 1.4375 15.0625 C-0.72882039 17.98232314 -3.6931055 18.66284793 -7 20 C-7.1081866 17.41554227 -7.18737237 14.83562648 -7.25 12.25 C-7.28351563 11.52039063 -7.31703125 10.79078125 -7.3515625 10.0390625 C-7.41664 6.45979975 -7.30470078 4.41928911 -5.171875 1.484375 C-3 0 -3 0 0 0 Z " fill="#6E7CAA" transform="translate(241,56)"/>
<path d="M0 0 C3.38528126 -0.41452424 5.98149375 -0.56627374 9.0234375 1.125 C12.38294103 3.75775379 13.87409385 5.02872401 14.4375 9.375 C14.293125 10.24125 14.14875 11.1075 14 12 C10.79300071 13.06899976 10.04855392 13.15180327 7 12 C4.859375 10.37109375 4.859375 10.37109375 2.75 8.4375 C2.04359375 7.79683594 1.3371875 7.15617187 0.609375 6.49609375 C-0.18726563 5.75552734 -0.18726563 5.75552734 -1 5 C-0.67 3.35 -0.34 1.7 0 0 Z " fill="#476EAB" transform="translate(201,54)"/>
<path d="M0 0 C4.2107125 1.63355352 6.98539535 4.76223005 10.0625 7.9375 C10.59166016 8.47568359 11.12082031 9.01386719 11.66601562 9.56835938 C13.1142685 11.04205208 14.55734739 12.52082454 16 14 C16.99868795 15.00131033 17.99834209 16.00166067 19 17 C16.3125 17.8125 16.3125 17.8125 13 18 C10.125 15.5625 10.125 15.5625 8 13 C5.525 14.485 5.525 14.485 3 16 C2.67 14.02 2.34 12.04 2 10 C1.34 10 0.68 10 0 10 C0 6.66666667 0 3.33333333 0 0 Z " fill="#6783AE" transform="translate(101,11)"/>
<path d="M0 0 C1.05230389 4.9608612 2 9.91809036 2 15 C0.35 14.67 -1.3 14.34 -3 14 C-3.33 14.66 -3.66 15.32 -4 16 C-4.33 15.67 -4.66 15.34 -5 15 C-5.99 15.99 -6.98 16.98 -8 18 C-8.12375 17.360625 -8.2475 16.72125 -8.375 16.0625 C-8.58125 15.381875 -8.7875 14.70125 -9 14 C-9.66 13.67 -10.32 13.34 -11 13 C-9.68 12.34 -8.36 11.68 -7 11 C-7.99 10.67 -8.98 10.34 -10 10 C-10 9.34 -10 8.68 -10 8 C-9.01 7.34 -8.02 6.68 -7 6 C-6.27034634 3.43717258 -6.27034634 3.43717258 -6 1 C-3 0 -3 0 0 0 Z " fill="#6C83AD" transform="translate(352,81)"/>
<path d="M0 0 C0.66 0 1.32 0 2 0 C2.43441406 0.72960938 2.86882812 1.45921875 3.31640625 2.2109375 C5.18476648 5.30608646 7.22316064 7.24944285 9.9375 9.625 C11.21947266 10.75808594 11.21947266 10.75808594 12.52734375 11.9140625 C14.89512607 14.0022727 14.89512607 14.0022727 17.30078125 15.48046875 C19 17 19 17 19.390625 19.26171875 C19.32101563 20.46248047 19.32101563 20.46248047 19.25 21.6875 C19.21390625 22.49574219 19.1778125 23.30398437 19.140625 24.13671875 C19.07101563 25.05904297 19.07101563 25.05904297 19 26 C16.36 26 13.72 26 11 26 C12.32 25.67 13.64 25.34 15 25 C15.41870553 22.66928121 15.41870553 22.66928121 15 20 C12.7905817 17.89816542 12.7905817 17.89816542 10 16 C8.33333333 14.33333333 6.66666667 12.66666667 5 11 C3.6078125 10.071875 3.6078125 10.071875 2.1875 9.125 C0 7 0 7 -0.3125 3.25 C-0.209375 2.1775 -0.10625 1.105 0 0 Z " fill="#6A84AE" transform="translate(127,10)"/>
<path d="M0 0 C0 0.66 0 1.32 0 2 C0.66 2 1.32 2 2 2 C2.33 3.32 2.66 4.64 3 6 C3.66 6 4.32 6 5 6 C5.33 7.32 5.66 8.64 6 10 C3 11 3 11 1.171875 10.1015625 C0.45515625 9.73804688 -0.2615625 9.37453125 -1 9 C-3.81496741 8.54724722 -3.81496741 8.54724722 -6.75 8.375 C-7.73484375 8.30023438 -8.7196875 8.22546875 -9.734375 8.1484375 C-10.48203125 8.09945312 -11.2296875 8.05046875 -12 8 C-11.6875 5.625 -11.6875 5.625 -11 3 C-7.25593545 0.50395696 -4.45848315 0 0 0 Z " fill="#5578AC" transform="translate(211,41)"/>
<path d="M0 0 C2.93774463 -0.05390357 5.87450232 -0.0936255 8.8125 -0.125 C10.06256836 -0.15013672 10.06256836 -0.15013672 11.33789062 -0.17578125 C12.14033203 -0.18222656 12.94277344 -0.18867188 13.76953125 -0.1953125 C14.50792236 -0.20578613 15.24631348 -0.21625977 16.00708008 -0.22705078 C18 0 18 0 21 2 C20 5 20 5 16.8125 6.75 C13.1378207 8.14952144 10.79769878 8.34501832 7 7 C4.47095134 5.19280531 2.15386683 3.24308025 0 1 C0 0.67 0 0.34 0 0 Z " fill="#6581AD" transform="translate(206,10)"/>
<path d="M0 0 C0.33 0.99 0.66 1.98 1 3 C3.64 2.67 6.28 2.34 9 2 C9.33 2.99 9.66 3.98 10 5 C12.8201938 6.71226052 15.92955871 7.8059395 19 9 C16.37801226 11.15377564 14.35595828 12.40072174 11 13 C9.35 11.02 7.7 9.04 6 7 C4.10786631 9.38573379 2.97608217 11.07175348 2 14 C1.67 14 1.34 14 1 14 C0.04738513 9.23692563 -0.08333357 4.8333472 0 0 Z " fill="#6783AE" transform="translate(63,22)"/>
<path d="M0 0 C4.03082 1.612328 6.75944137 4.46234596 9.75 7.5 C10.25660156 7.99886719 10.76320312 8.49773438 11.28515625 9.01171875 C15 12.74658861 15 12.74658861 15 15 C13.35 15.66 11.7 16.32 10 17 C9.31164062 16.13375 9.31164062 16.13375 8.609375 15.25 C7.99578125 14.5075 7.3821875 13.765 6.75 13 C6.14671875 12.2575 5.5434375 11.515 4.921875 10.75 C2.94027788 8.55115267 2.94027788 8.55115267 -1 9 C-3.25 8 -3.25 8 -5 7 C-3.35 6.34 -1.7 5.68 0 5 C0 3.35 0 1.7 0 0 Z " fill="#5F7FAF" transform="translate(234,35)"/>
<path d="M0 0 C9.84703247 -0.77603583 9.84703247 -0.77603583 14.25 2.1875 C16 5 16 5 15.6875 7.5625 C15.460625 8.366875 15.23375 9.17125 15 10 C15.84077872 12.26857146 15.84077872 12.26857146 17 14 C13.11762992 12.38081248 10.43935118 9.8413391 7.375 7 C6.41335937 6.113125 5.45171875 5.22625 4.4609375 4.3125 C2.95374007 2.89621289 1.46244885 1.46244885 0 0 Z " fill="#4970AA" transform="translate(138,10)"/>
<path d="M0 0 C5.94 0 11.88 0 18 0 C13.54545455 3.34090909 13.54545455 3.34090909 9 3 C7.68 3 6.36 3 5 3 C5.33 3.66 5.66 4.32 6 5 C6.99 5.33 7.98 5.66 9 6 C10.1194613 8.8914086 10.10768197 11.67762612 10.0625 14.75 C10.05347656 15.54921875 10.04445313 16.3484375 10.03515625 17.171875 C10.02355469 17.77515625 10.01195312 18.3784375 10 19 C9.67 19 9.34 19 9 19 C8.87625 18.030625 8.7525 17.06125 8.625 16.0625 C8.41875 15.051875 8.2125 14.04125 8 13 C7.34 12.67 6.68 12.34 6 12 C6 11.34 6 10.68 6 10 C5.071875 9.566875 5.071875 9.566875 4.125 9.125 C2 8 2 8 0 6 C0 4 0 2 0 0 Z " fill="#6681AD" transform="translate(5,10)"/>
<path d="M0 0 C5.61 0 11.22 0 17 0 C16.01 0.33 15.02 0.66 14 1 C14 3.31 14 5.62 14 8 C13.38125 7.835 12.7625 7.67 12.125 7.5 C7.74529271 6.79924683 3.42571011 6.92265749 -1 7 C-0.67 4.69 -0.34 2.38 0 0 Z " fill="#798DB0" transform="translate(66,57)"/>
<path d="M0 0 C2.80549222 1.14297831 4.28506374 2.29237307 6.4375 4.5 C8.99378195 6.99393361 10.68461379 7.86578893 14 9 C14.99 9.66 15.98 10.32 17 11 C17 11.66 17 12.32 17 13 C15.35 13.66 13.7 14.32 12 15 C12 16.98 12 18.96 12 21 C11.34 21 10.68 21 10 21 C9.86464844 20.45472656 9.72929687 19.90945312 9.58984375 19.34765625 C7.91872634 13.49374198 5.40255711 9.53960014 1.42578125 4.9453125 C0 3 0 3 0 0 Z " fill="#4F73AB" transform="translate(216,21)"/>
<path d="M0 0 C1.32 0.33 2.64 0.66 4 1 C4 3.97 4 6.94 4 10 C0.7 11.32 -2.6 12.64 -6 14 C-5.67 10.7 -5.34 7.4 -5 4 C-4.01 4 -3.02 4 -2 4 C-2.33 3.34 -2.66 2.68 -3 2 C-2.01 1.34 -1.02 0.68 0 0 Z " fill="#3C65A8" transform="translate(50,72)"/>
<path d="M0 0 C4.62 0 9.24 0 14 0 C14 4.29 14 8.58 14 13 C9.81918736 9.4750011 5.81574834 5.92476972 2 2 C1.34 1.34 0.68 0.68 0 0 Z " fill="#6682AE" transform="translate(161,10)"/>
<path d="M0 0 C8.75 5.625 8.75 5.625 11 9 C9.54462432 9.83848804 8.08559627 10.67063934 6.625 11.5 C5.81289062 11.9640625 5.00078125 12.428125 4.1640625 12.90625 C2 14 2 14 0 14 C0 9.38 0 4.76 0 0 Z " fill="#416AAA" transform="translate(0,53)"/>
<path d="M0 0 C0.10832169 2.08218362 0.18573541 4.16599129 0.25 6.25 C0.29640625 7.41015625 0.3428125 8.5703125 0.390625 9.765625 C-0.08266927 13.68450156 -1.15832247 14.41280106 -4 17 C-5.10209333 19.55627525 -5.10209333 19.55627525 -5.75 22.25 C-5.99234375 23.14203125 -6.2346875 24.0340625 -6.484375 24.953125 C-6.65453125 25.62859375 -6.8246875 26.3040625 -7 27 C-7.33 27 -7.66 27 -8 27 C-7.94014838 24.37251369 -7.85323776 21.75083005 -7.75 19.125 C-7.73582031 18.37863281 -7.72164063 17.63226563 -7.70703125 16.86328125 C-7.609375 14.6953125 -7.609375 14.6953125 -7 11 C-4.953125 9.4921875 -4.953125 9.4921875 -3 9 C-3.33 8.236875 -3.66 7.47375 -4 6.6875 C-5 4 -5 4 -5 1 C-2 0 -2 0 0 0 Z " fill="#6582AE" transform="translate(100,26)"/>
<path d="M0 0 C0.66 0 1.32 0 2 0 C2 0.66 2 1.32 2 2 C2.78375 2.268125 3.5675 2.53625 4.375 2.8125 C7 4 7 4 9 7 C8.34 7.433125 7.68 7.86625 7 8.3125 C6.34 8.869375 5.68 9.42625 5 10 C5 10.99 5 11.98 5 13 C4.34 12.67 3.68 12.34 3 12 C2.67 14.31 2.34 16.62 2 19 C1.67 19 1.34 19 1 19 C0.77213542 16.94921875 0.54427083 14.8984375 0.31640625 12.84765625 C0.18113386 10.98859771 0.18113386 10.98859771 -1 10 C-1.0979057 8.50261876 -1.12974864 7.00057108 -1.125 5.5 C-1.12757812 4.6853125 -1.13015625 3.870625 -1.1328125 3.03125 C-1 1 -1 1 0 0 Z " fill="#5578AC" transform="translate(43,65)"/>
<path d="M0 0 C3.76488042 1.72154788 6.15063897 3.99234114 9 7 C6.36 7 3.72 7 1 7 C0.89042969 7.56589844 0.78085937 8.13179687 0.66796875 8.71484375 C0.50941406 9.44832031 0.35085937 10.18179687 0.1875 10.9375 C0.03667969 11.66839844 -0.11414062 12.39929688 -0.26953125 13.15234375 C-0.51058594 13.76207031 -0.75164063 14.37179688 -1 15 C-1.99 15.33 -2.98 15.66 -4 16 C-4.5326514 9.741346 -2.81849506 5.54891215 0 0 Z " fill="#6984AE" transform="translate(42,14)"/>
<path d="M0 0 C0.99 0 1.98 0 3 0 C3 5.28 3 10.56 3 16 C1.35 16 -0.3 16 -2 16 C-3.35209795 11.34277373 -3.06102674 6.69619661 -2 2 C-1.34 1.34 -0.68 0.68 0 0 Z " fill="#5E7CAC" transform="translate(224,62)"/>
<path d="M0 0 C3.8100236 1.74396957 5.22550925 3.11302027 7 7 C7.51692769 9.67907714 7.76891068 12.27314602 8 15 C2.25 18 2.25 18 0 18 C0.37125 17.2575 0.7425 16.515 1.125 15.75 C2.40393478 10.26885094 1.14474387 5.44193625 0 0 Z " fill="#6F7CA9" transform="translate(265,50)"/>
<path d="M0 0 C3.3 0 6.6 0 10 0 C12.66666667 5.33333333 15.33333333 10.66666667 18 16 C13.72361294 14.34729002 10.9987603 11.22256537 7.875 8 C7.33746094 7.4534375 6.79992187 6.906875 6.24609375 6.34375 C4.82680203 4.89968262 3.41307424 3.45015199 2 2 C1.34 1.34 0.68 0.68 0 0 Z " fill="#5679AC" transform="translate(101,10)"/>
<path d="M0 0 C2.21736634 1.10868317 4.03617993 2.49440461 6 4 C2.51287625 7.48712375 -0.03741909 9.31075265 -5 10 C-5.66 9.01 -6.32 8.02 -7 7 C-7.66 6.835 -8.32 6.67 -9 6.5 C-11 6 -11 6 -13 3 C-11.35 2.67 -9.7 2.34 -8 2 C-7.67 2.66 -7.34 3.32 -7 4 C-5.35 3.67 -3.7 3.34 -2 3 C-2 2.34 -2 1.68 -2 1 C-1.34 0.67 -0.68 0.34 0 0 Z " fill="#5779AC" transform="translate(92,95)"/>
<path d="M0 0 C1.98 0.99 1.98 0.99 4 2 C4.66 1.34 5.32 0.68 6 0 C6 8.91 6 17.82 6 27 C5.67 27 5.34 27 5 27 C4.67 21.39 4.34 15.78 4 10 C3.34 9.67 2.68 9.34 2 9 C1.67 12.63 1.34 16.26 1 20 C0.67 20 0.34 20 0 20 C0 13.4 0 6.8 0 0 Z " fill="#788EB3" transform="translate(52,22)"/>
<path d="M0 0 C0 0.66 0 1.32 0 2 C0.5775 2.268125 1.155 2.53625 1.75 2.8125 C4.05550043 4.02929189 6.02056192 5.30333879 8 7 C8 7.66 8 8.32 8 9 C8.99 9.33 9.98 9.66 11 10 C10.01 10.66 9.02 11.32 8 12 C6 11 4 10 2 9 C1.29875 8.690625 0.5975 8.38125 -0.125 8.0625 C-2.49547596 6.71923029 -4.11039111 4.95056402 -6 3 C-6.99 2.34 -7.98 1.68 -9 1 C-5.64919071 -1.10976881 -3.77897651 -1.0497157 0 0 Z " fill="#4A71AA" transform="translate(77,15)"/>
<path d="M0 0 C4.32227242 2.16113621 6.04267502 4.26443161 9 8 C9.66 8.66 10.32 9.32 11 10 C10 11 10 11 7.49609375 11.09765625 C4.6640625 11.06510417 1.83203125 11.03255208 -1 11 C-0.67 7.37 -0.34 3.74 0 0 Z " fill="#6E7AA9" transform="translate(318,101)"/>
<path d="M0 0 C0.144375 0.78375 0.28875 1.5675 0.4375 2.375 C0.87798925 4.96421018 0.87798925 4.96421018 2 7 C0.0625 7.5625 0.0625 7.5625 -2 8 C-2.33 7.67 -2.66 7.34 -3 7 C-4.6396875 7.556875 -4.6396875 7.556875 -6.3125 8.125 C-7.529375 8.41375 -8.74625 8.7025 -10 9 C-10.99 8.34 -11.98 7.68 -13 7 C-12.38125 6.5875 -11.7625 6.175 -11.125 5.75 C-8.9087413 3.92484577 -8.19118623 2.55254191 -7 0 C-4.3333581 -1.33332095 -2.83319697 -0.67102033 0 0 Z " fill="#5A7BAC" transform="translate(97,87)"/>
<path d="M0 0 C0 0.33 0 0.66 0 1 C-1.65 1 -3.3 1 -5 1 C-5.20625 2.27875 -5.4125 3.5575 -5.625 4.875 C-6.15625 7.0859375 -6.15625 7.0859375 -7 9 C-10.125 10.5 -10.125 10.5 -13 11 C-13 13.64 -13 16.28 -13 19 C-13.33 19 -13.66 19 -14 19 C-14.62334158 9.26894536 -14.62334158 9.26894536 -12.25 4.4375 C-8.31201041 0.17134462 -5.76427728 -0.2620126 0 0 Z " fill="#7E94B6" transform="translate(74,67)"/>
<path d="M0 0 C0.33 0.66 0.66 1.32 1 2 C-1 4 -1 4 -3 5 C-3 5.66 -3 6.32 -3 7 C-3.66 7 -4.32 7 -5 7 C-5 6.01 -5 5.02 -5 4 C-6.65 4 -8.3 4 -10 4 C-10.33 4.99 -10.66 5.98 -11 7 C-14 5 -14 5 -15 3 C-3.8 -1.9 -3.8 -1.9 0 0 Z M-17 4 C-15 5 -15 5 -15 5 Z " fill="#607FAF" transform="translate(90,84)"/>
<path d="M0 0 C0.66 0.33 1.32 0.66 2 1 C1.23046687 4.84766567 -0.2397053 6.2397053 -3 9 C-3.99 9.33 -4.98 9.66 -6 10 C-5.01 10.66 -4.02 11.32 -3 12 C-3.33 13.32 -3.66 14.64 -4 16 C-4.99 15.67 -5.98 15.34 -7 15 C-7 14.34 -7 13.68 -7 13 C-8.32 12.67 -9.64 12.34 -11 12 C-9.1875 9.5 -9.1875 9.5 -7 7 C-6.01 7 -5.02 7 -4 7 C-4 5.68 -4 4.36 -4 3 C-2.68 2.67 -1.36 2.34 0 2 C0 1.34 0 0.68 0 0 Z " fill="#6985B0" transform="translate(91,84)"/>
<path d="M0 0 C2.125 0.9375 2.125 0.9375 4 2 C4 2.66 4 3.32 4 4 C5.98 4 7.96 4 10 4 C10 5.65 10 7.3 10 9 C8.1875 9.6875 8.1875 9.6875 6 10 C5.54625 9.525625 5.0925 9.05125 4.625 8.5625 C2.9914698 6.65321269 2.9914698 6.65321269 -0.1875 6.8125 C-1.115625 6.874375 -2.04375 6.93625 -3 7 C-2.34 6.01 -1.68 5.02 -1 4 C-1.33 3.01 -1.66 2.02 -2 1 C-1.34 0.67 -0.68 0.34 0 0 Z " fill="#6985AF" transform="translate(78,97)"/>
<path d="M0 0 C2.5625 0.1875 2.5625 0.1875 4.5625 2.1875 C4.02678571 5.72321429 4.02678571 5.72321429 2.5625 7.1875 C0.0625 7.3125 0.0625 7.3125 -2.4375 7.1875 C-3.4375 6.1875 -3.4375 6.1875 -3.5625 3.6875 C-3.39599509 0.35740177 -3.31519894 0.2550153 0 0 Z " fill="#F4F6F8" transform="translate(230.4375,34.8125)"/>
<path d="M0 0 C4.455 0.99 4.455 0.99 9 2 C8.34 3.32 7.68 4.64 7 6 C6.01 6 5.02 6 4 6 C3.67 6.99 3.34 7.98 3 9 C2.01 9.33 1.02 9.66 0 10 C0 6.7 0 3.4 0 0 Z " fill="#5878AB" transform="translate(234,50)"/>
<path d="M0 0 C0 0.66 0 1.32 0 2 C0.66 2.33 1.32 2.66 2 3 C1.39671875 3.18175781 0.7934375 3.36351562 0.171875 3.55078125 C-5.85585198 5.41987906 -5.85585198 5.41987906 -11 9 C-11 7.35 -11 5.7 -11 4 C-12.98 4 -14.96 4 -17 4 C-17 3.67 -17 3.34 -17 3 C-16.00419922 2.92652344 -16.00419922 2.92652344 -14.98828125 2.8515625 C-9.94606655 2.42463045 -4.76544329 0 0 0 Z " fill="#768CB1" transform="translate(183,46)"/>
<path d="M0 0 C3.77281397 -0.35095944 5.59175057 -0.24849965 8.875 1.75 C11 4 11 4 11 8 C8.087425 7.91433603 6.43201976 7.42089045 4.33203125 5.375 C2.83908228 3.61608625 1.39563738 1.83686981 0 0 Z " fill="#6985AE" transform="translate(166,39)"/>
<path d="M0 0 C4.13950168 2.62504985 7.82178865 5.47208675 11.484375 8.73046875 C12.99096965 10.0919436 12.99096965 10.0919436 15 11 C15 12.32 15 13.64 15 15 C11.22975351 13.74325117 9.77819804 11.8413389 7 9 C5.13559622 7.45343637 3.25725907 5.93003381 1.35546875 4.4296875 C0 3 0 3 0 0 Z " fill="#4970AA" transform="translate(104,59)"/>
<path d="M0 0 C4.875 2.625 4.875 2.625 6 6 C4.71211992 6.53012738 3.41953322 7.0488329 2.125 7.5625 C1.04605469 7.99755859 1.04605469 7.99755859 -0.0546875 8.44140625 C-2 9 -2 9 -4 8 C-2.68 5.36 -1.36 2.72 0 0 Z " fill="#3F69AA" transform="translate(77,74)"/>
<path d="M0 0 C0.144375 0.78375 0.28875 1.5675 0.4375 2.375 C0.87798925 4.96421018 0.87798925 4.96421018 2 7 C-3.35048061 6.62671065 -5.50912907 5.0042343 -9 1 C-6.04335481 -0.4783226 -3.25770263 -0.06032783 0 0 Z " fill="#5477AB" transform="translate(56,92)"/>
<path d="M0 0 C4.875 2.625 4.875 2.625 6 6 C6.66 6.33 7.32 6.66 8 7 C2.25 10 2.25 10 0 10 C0 6.7 0 3.4 0 0 Z " fill="#4E73AA" transform="translate(0,57)"/>
<path d="M0 0 C2.97 0 5.94 0 9 0 C9 2.64 9 5.28 9 8 C7.68388323 7.04663979 6.37221039 6.08714226 5.0625 5.125 C4.33160156 4.59132813 3.60070312 4.05765625 2.84765625 3.5078125 C1 2 1 2 0 0 Z " fill="#5477AC" transform="translate(166,10)"/>
<path d="M0 0 C4.13639336 1.59092052 7.23213248 4.60474918 10 8 C10 8.66 10 9.32 10 10 C6.56072421 8.7580393 3.74792181 7.44259716 1 5 C1 4.34 1 3.68 1 3 C0.34 3 -0.32 3 -1 3 C-0.67 2.01 -0.34 1.02 0 0 Z " fill="#3F68A9" transform="translate(234,42)"/>
<path d="M0 0 C2.97 0 5.94 0 9 0 C8.34 1.32 7.68 2.64 7 4 C7.99 4.99 8.98 5.98 10 7 C9.67 7.66 9.34 8.32 9 9 C7.49428343 7.88266271 5.99555708 6.75589965 4.5 5.625 C3.6646875 4.99851562 2.829375 4.37203125 1.96875 3.7265625 C1.3190625 3.15679687 0.669375 2.58703125 0 2 C0 1.34 0 0.68 0 0 Z " fill="#587AAD" transform="translate(139,42)"/>
<path d="M0 0 C2.05078125 0.03255208 4.1015625 0.06510417 6.15234375 0.09765625 C6.48234375 1.08765625 6.81234375 2.07765625 7.15234375 3.09765625 C4.33984375 4.66015625 4.33984375 4.66015625 1.15234375 6.09765625 C0.16234375 5.76765625 -0.82765625 5.43765625 -1.84765625 5.09765625 C-2.59765625 3.09765625 -2.59765625 3.09765625 -2.84765625 1.09765625 C-1.84765625 0.09765625 -1.84765625 0.09765625 0 0 Z " fill="#6482AF" transform="translate(68.84765625,98.90234375)"/>
<path d="M0 0 C0.0825 0.61875 0.165 1.2375 0.25 1.875 C0.81258459 4.18437567 0.81258459 4.18437567 3.0625 5.25 C3.701875 5.4975 4.34125 5.745 5 6 C5 7.65 5 9.3 5 11 C3.35 11 1.7 11 0 11 C-1.05404945 7.01803543 -0.84098656 4.01804691 0 0 Z " fill="#6683AE" transform="translate(222,67)"/>
<path d="M0 0 C3.3 0 6.6 0 10 0 C8 1 6 2 4 3 C3.09656316 4.88263881 3.09656316 4.88263881 2.375 7.0625 C2.11460937 7.79597656 1.85421875 8.52945312 1.5859375 9.28515625 C1.39257812 9.85105469 1.19921875 10.41695312 1 11 C0.67 11 0.34 11 0 11 C0 7.37 0 3.74 0 0 Z " fill="#4069AA" transform="translate(175,10)"/>
<path d="M0 0 C2.62187494 1.04874998 3.79371361 1.64931313 5.25 4.125 C5.4975 4.74375 5.745 5.3625 6 6 C5.01 6.66 4.02 7.32 3 8 C2.01 7.67 1.02 7.34 0 7 C0 6.34 0 5.68 0 5 C-1.32 4.34 -2.64 3.68 -4 3 C-2.68 2.01 -1.36 1.02 0 0 Z " fill="#6B84AD" transform="translate(126,102)"/>
<path d="M0 0 C0.66 0 1.32 0 2 0 C2.12375 0.804375 2.2475 1.60875 2.375 2.4375 C2.684375 3.7059375 2.684375 3.7059375 3 5 C3.66 5.33 4.32 5.66 5 6 C5 6.66 5 7.32 5 8 C0.25 7.25 0.25 7.25 -2 5 C-1.46428571 1.46428571 -1.46428571 1.46428571 0 0 Z " fill="#7583AE" transform="translate(248,55)"/>
<path d="M0 0 C3.96 0 7.92 0 12 0 C12 0.33 12 0.66 12 1 C9.69 1 7.38 1 5 1 C5 1.66 5 2.32 5 3 C5.639375 3.28875 6.27875 3.5775 6.9375 3.875 C9 5 9 5 10 7 C8.68 6.67 7.36 6.34 6 6 C6 5.34 6 4.68 6 4 C3.69 3.34 1.38 2.68 -1 2 C-0.67 1.34 -0.34 0.68 0 0 Z " fill="#738CB3" transform="translate(134,41)"/>
<path d="M0 0 C3.3 0 6.6 0 10 0 C9.34 0.66 8.68 1.32 8 2 C7.34 1.67 6.68 1.34 6 1 C6 5.62 6 10.24 6 15 C5.67 15 5.34 15 5 15 C4.96132812 13.62714844 4.96132812 13.62714844 4.921875 12.2265625 C4.86515625 11.03804687 4.8084375 9.84953125 4.75 8.625 C4.70359375 7.44164062 4.6571875 6.25828125 4.609375 5.0390625 C4.40828125 4.03617188 4.2071875 3.03328125 4 2 C2.68 1.34 1.36 0.68 0 0 Z " fill="#6984AE" transform="translate(86,10)"/>
<path d="M0 0 C2.94982021 1.14186589 4.88437775 2.67281553 7 5 C4.36 5 1.72 5 -1 5 C-1.33 3.68 -1.66 2.36 -2 1 C-1.34 0.67 -0.68 0.34 0 0 Z " fill="#6E80AB" transform="translate(309,107)"/>
<path d="M0 0 C0 1.32 0 2.64 0 4 C-3.63 4 -7.26 4 -11 4 C-7.32740617 1.55160412 -4.45351799 0 0 0 Z " fill="#617FAD" transform="translate(382,108)"/>
<path d="M0 0 C0.33 0 0.66 0 1 0 C1 3.3 1 6.6 1 10 C-3 8 -3 8 -5 5 C-3.68 4.67 -2.36 4.34 -1 4 C-0.67 2.68 -0.34 1.36 0 0 Z " fill="#6987B2" transform="translate(215,62)"/>
<path d="M0 0 C-1 3 -1 3 -3 4 C-4.875 4.16796875 -4.875 4.16796875 -7 4.1875 C-8.051875 4.20876953 -8.051875 4.20876953 -9.125 4.23046875 C-11 4 -11 4 -13 2 C-12.06027344 1.90912109 -12.06027344 1.90912109 -11.1015625 1.81640625 C-9.87566406 1.69072266 -9.87566406 1.69072266 -8.625 1.5625 C-7.81289062 1.48128906 -7.00078125 1.40007812 -6.1640625 1.31640625 C-3.85304959 0.97851447 -2.33455672 0 0 0 Z " fill="#768FB5" transform="translate(78,91)"/>
<path d="M0 0 C0.99 0.99 1.98 1.98 3 3 C2.34 4.98 1.68 6.96 1 9 C0.01 9 -0.98 9 -2 9 C-1.855625 8.443125 -1.71125 7.88625 -1.5625 7.3125 C-0.97230872 4.88615805 -0.476571 2.45093655 0 0 Z " fill="#6D83AC" transform="translate(140,96)"/>
<path d="M0 0 C2.64 0 5.28 0 8 0 C8 1.32 8 2.64 8 4 C5.07120629 3.37240135 2.63904371 2.41377341 0 1 C0 0.67 0 0.34 0 0 Z " fill="#5578AC" transform="translate(195,10)"/>
<path d="M0 0 C0.268125 0.639375 0.53625 1.27875 0.8125 1.9375 C1.88667752 4.33131686 1.88667752 4.33131686 5 5 C4.67 5.99 4.34 6.98 4 8 C2.35 7.01 0.7 6.02 -1 5 C-0.67 3.35 -0.34 1.7 0 0 Z " fill="#587AAD" transform="translate(43,85)"/>
<path d="M0 0 C0.66 1.32 1.32 2.64 2 4 C1.34 4.66 0.68 5.32 0 6 C-2.01920337 4.69593116 -4.01924973 3.36176581 -6 2 C-6 1.67 -6 1.34 -6 1 C-4.02 0.67 -2.04 0.34 0 0 Z " fill="#8291B5" transform="translate(266,58)"/>
<path d="M0 0 C0 1.98 0 3.96 0 6 C-0.33 5.34 -0.66 4.68 -1 4 C-2.98 4.66 -4.96 5.32 -7 6 C-5.61469317 1.84407951 -4.52657396 0 0 0 Z " fill="#7E8EB3" transform="translate(241,56)"/>
<path d="M0 0 C2.91387197 0.2913872 3.82565583 0.79452294 5.75 3.0625 C6.1625 3.701875 6.575 4.34125 7 5 C5.02 5 3.04 5 1 5 C1 4.01 1 3.02 1 2 C0.34 1.67 -0.32 1.34 -1 1 C-0.67 0.67 -0.34 0.34 0 0 Z " fill="#5779AC" transform="translate(227,45)"/>
<path d="M0 0 C0.33 0 0.66 0 1 0 C1 2.97 1 5.94 1 9 C-1.64 9 -4.28 9 -7 9 C-5.68 8.67 -4.36 8.34 -3 8 C-3 7.34 -3 6.68 -3 6 C-2.34 5.67 -1.68 5.34 -1 5 C-0.34444881 2.47266765 -0.34444881 2.47266765 0 0 Z " fill="#738DB4" transform="translate(145,27)"/>
<path d="M0 0 C1.52299523 2.93720508 2.80100302 5.9168649 4 9 C2.68 9.33 1.36 9.66 0 10 C-0.66 8.35 -1.32 6.7 -2 5 C-1.34 5 -0.68 5 0 5 C0 3.35 0 1.7 0 0 Z " fill="#6886B2" transform="translate(55,86)"/>
<path d="M0 0 C0.33 0 0.66 0 1 0 C1 3.63 1 7.26 1 11 C0.01 10.67 -0.98 10.34 -2 10 C-1.46274105 6.62294375 -0.88935377 3.303314 0 0 Z " fill="#7A90B3" transform="translate(46,27)"/>
<path d="M0 0 C1.98 0 3.96 0 6 0 C6 0.99 6 1.98 6 3 C4.35 3.66 2.7 4.32 1 5 C0.67 3.35 0.34 1.7 0 0 Z " fill="#4C72AA" transform="translate(221,59)"/>
<path d="M0 0 C1.76462683 3.08809695 2 4.23312136 2 8 C1.01 8 0.02 8 -1 8 C-0.67 5.36 -0.34 2.72 0 0 Z " fill="#6C86AE" transform="translate(64,44)"/>
<path d="M0 0 C2.97 1.98 2.97 1.98 6 4 C4.125 5.0625 4.125 5.0625 2 6 C1.34 5.67 0.68 5.34 0 5 C0 3.35 0 1.7 0 0 Z " fill="#607EAD" transform="translate(185,33)"/>
<path d="M0 0 C1.98 0.99 3.96 1.98 6 3 C5.01 3.33 4.02 3.66 3 4 C3 4.99 3 5.98 3 7 C2.34 6.67 1.68 6.34 1 6 C1 4.68 1 3.36 1 2 C0.34 1.67 -0.32 1.34 -1 1 C-0.67 0.67 -0.34 0.34 0 0 Z " fill="#6B84AD" transform="translate(135,105)"/>
<path d="M0 0 C1.32 0.33 2.64 0.66 4 1 C3.67 2.32 3.34 3.64 3 5 C2.01 4.67 1.02 4.34 0 4 C0 2.68 0 1.36 0 0 Z " fill="#98AAC3" transform="translate(84,95)"/>
<path d="M0 0 C2.4375 0.6875 2.4375 0.6875 5 2 C5.8125 4.625 5.8125 4.625 6 7 C1.125 3.375 1.125 3.375 0 0 Z " fill="#758CB2" transform="translate(126,71)"/>
</svg>
